<svg data-v-fde0c5aa="" xmlns="http://www.w3.org/2000/svg" viewBox="0 0 300 300" class="iconLeft"><!----><defs data-v-fde0c5aa=""><!----></defs><rect data-v-fde0c5aa="" fill="#E1F4FC" x="0" y="0" width="300px" height="300px" class="logo-background-square"></rect><defs data-v-fde0c5aa=""><!----></defs><g data-v-fde0c5aa="" id="fe62a174-4f21-4d26-a03c-a5a3f5962787" fill="#08374E" transform="matrix(2.3055595155526896,0,0,2.3055595155526896,100.6858459405078,130.39121633121815)"><path d="M3.95 4.62L3.95 4.62Q4.86 4.62 5.58 4.91L5.58 4.91L5.58 4.91Q6.30 5.21 6.72 5.73L6.72 5.73L6.72 5.73Q6.90 5.95 6.90 6.17L6.90 6.17L6.90 6.17Q6.90 6.41 6.66 6.61L6.66 6.61L6.66 6.61Q6.51 6.72 6.27 6.72L6.27 6.72L6.27 6.72Q5.91 6.72 5.61 6.45L5.61 6.45L5.61 6.45Q5.26 6.13 4.87 6.00L4.87 6.00L4.87 6.00Q4.48 5.87 3.92 5.87L3.92 5.87L3.92 5.87Q3.28 5.87 2.86 6.08L2.86 6.08L2.86 6.08Q2.45 6.30 2.45 6.69L2.45 6.69L2.45 6.69Q2.45 6.97 2.59 7.16L2.59 7.16L2.59 7.16Q2.73 7.35 3.12 7.51L3.12 7.51L3.12 7.51Q3.51 7.67 4.26 7.83L4.26 7.83L4.26 7.83Q5.78 8.13 6.42 8.68L6.42 8.68L6.42 8.68Q7.06 9.23 7.06 10.09L7.06 10.09L7.06 10.09Q7.06 10.74 6.71 11.26L6.71 11.26L6.71 11.26Q6.36 11.79 5.68 12.09L5.68 12.09L5.68 12.09Q5.00 12.39 4.05 12.39L4.05 12.39L4.05 12.39Q3.09 12.39 2.25 12.10L2.25 12.10L2.25 12.10Q1.41 11.80 0.94 11.33L0.94 11.33L0.94 11.33Q0.76 11.14 0.76 10.89L0.76 10.89L0.76 10.89Q0.76 10.56 1.04 10.35L1.04 10.35L1.04 10.35Q1.30 10.15 1.53 10.15L1.53 10.15L1.53 10.15Q1.81 10.15 2.06 10.40L2.06 10.40L2.06 10.40Q2.32 10.70 2.86 10.91L2.86 10.91L2.86 10.91Q3.39 11.13 3.99 11.13L3.99 11.13L3.99 11.13Q4.79 11.13 5.23 10.86L5.23 10.86L5.23 10.86Q5.67 10.60 5.67 10.15L5.67 10.15L5.67 10.15Q5.67 9.72 5.24 9.43L5.24 9.43L5.24 9.43Q4.80 9.14 3.77 8.95L3.77 8.95L3.77 8.95Q1.08 8.43 1.08 6.73L1.08 6.73L1.08 6.73Q1.08 6.05 1.48 5.57L1.48 5.57L1.48 5.57Q1.89 5.10 2.55 4.86L2.55 4.86L2.55 4.86Q3.21 4.62 3.95 4.62L3.95 4.62ZM15.18 4.66L15.18 4.66Q15.50 4.66 15.69 4.86L15.69 4.86L15.69 4.86Q15.89 5.05 15.89 5.38L15.89 5.38L15.89 11.62L15.89 11.62Q15.89 11.93 15.69 12.13L15.69 12.13L15.69 12.13Q15.50 12.33 15.18 12.33L15.18 12.33L15.18 12.33Q14.87 12.33 14.66 12.13L14.66 12.13L14.66 12.13Q14.46 11.93 14.46 11.62L14.46 11.62L14.46 11.47L14.46 11.47Q14.01 11.91 13.40 12.16L13.40 12.16L13.40 12.16Q12.78 12.40 12.08 12.40L12.08 12.40L12.08 12.40Q11.12 12.40 10.35 11.98L10.35 11.98L10.35 11.98Q9.58 11.56 9.14 10.76L9.14 10.76L9.14 10.76Q8.71 9.95 8.71 8.82L8.71 8.82L8.71 5.38L8.71 5.38Q8.71 5.07 8.91 4.86L8.91 4.86L8.91 4.86Q9.11 4.66 9.42 4.66L9.42 4.66L9.42 4.66Q9.73 4.66 9.93 4.86L9.93 4.86L9.93 4.86Q10.14 5.07 10.14 5.38L10.14 5.38L10.14 8.82L10.14 8.82Q10.14 9.95 10.75 10.54L10.75 10.54L10.75 10.54Q11.35 11.12 12.36 11.12L12.36 11.12L12.36 11.12Q12.95 11.12 13.43 10.88L13.43 10.88L13.43 10.88Q13.92 10.64 14.19 10.23L14.19 10.23L14.19 10.23Q14.46 9.83 14.46 9.32L14.46 9.32L14.46 5.38L14.46 5.38Q14.46 5.05 14.66 4.86L14.66 4.86L14.66 4.86Q14.87 4.66 15.18 4.66L15.18 4.66ZM22.26 4.62L22.26 4.62Q23.34 4.62 24.23 5.13L24.23 5.13L24.23 5.13Q25.12 5.64 25.62 6.53L25.62 6.53L25.62 6.53Q26.12 7.42 26.12 8.51L26.12 8.51L26.12 8.51Q26.12 9.60 25.66 10.49L25.66 10.49L25.66 10.49Q25.19 11.38 24.37 11.89L24.37 11.89L24.37 11.89Q23.55 12.39 22.54 12.39L22.54 12.39L22.54 12.39Q21.73 12.39 21.03 12.05L21.03 12.05L21.03 12.05Q20.33 11.72 19.84 11.12L19.84 11.12L19.84 14.90L19.84 14.90Q19.84 15.22 19.64 15.41L19.64 15.41L19.64 15.41Q19.45 15.61 19.12 15.61L19.12 15.61L19.12 15.61Q18.82 15.61 18.61 15.41L18.61 15.41L18.61 15.41Q18.41 15.22 18.41 14.90L18.41 14.90L18.41 8.51L18.41 8.51Q18.41 7.42 18.92 6.53L18.92 6.53L18.92 6.53Q19.43 5.64 20.31 5.13L20.31 5.13L20.31 5.13Q21.18 4.62 22.26 4.62L22.26 4.62ZM22.26 11.13L22.26 11.13Q22.96 11.13 23.53 10.79L23.53 10.79L23.53 10.79Q24.09 10.44 24.42 9.85L24.42 9.85L24.42 9.85Q24.75 9.25 24.75 8.51L24.75 8.51L24.75 8.51Q24.75 7.77 24.42 7.17L24.42 7.17L24.42 7.17Q24.09 6.57 23.53 6.22L23.53 6.22L23.53 6.22Q22.96 5.88 22.26 5.88L22.26 5.88L22.26 5.88Q21.56 5.88 20.99 6.22L20.99 6.22L20.99 6.22Q20.43 6.57 20.10 7.17L20.10 7.17L20.10 7.17Q19.78 7.77 19.78 8.51L19.78 8.51L19.78 8.51Q19.78 9.25 20.10 9.85L20.10 9.85L20.10 9.85Q20.43 10.44 20.99 10.79L20.99 10.79L20.99 10.79Q21.56 11.13 22.26 11.13L22.26 11.13ZM35.13 8.39L35.13 8.39Q35.13 8.65 34.94 8.83L34.94 8.83L34.94 8.83Q34.76 9.00 34.48 9.00L34.48 9.00L29.16 9.00L29.16 9.00Q29.32 9.98 30.05 10.58L30.05 10.58L30.05 10.58Q30.79 11.19 31.85 11.19L31.85 11.19L31.85 11.19Q32.27 11.19 32.72 11.03L32.72 11.03L32.72 11.03Q33.18 10.88 33.47 10.65L33.47 10.65L33.47 10.65Q33.67 10.50 33.94 10.50L33.94 10.50L33.94 10.50Q34.20 10.50 34.36 10.64L34.36 10.64L34.36 10.64Q34.61 10.85 34.61 11.12L34.61 11.12L34.61 11.12Q34.61 11.37 34.38 11.54L34.38 11.54L34.38 11.54Q33.91 11.91 33.20 12.15L33.20 12.15L33.20 12.15Q32.49 12.39 31.85 12.39L31.85 12.39L31.85 12.39Q30.70 12.39 29.79 11.89L29.79 11.89L29.79 11.89Q28.88 11.40 28.37 10.51L28.37 10.51L28.37 10.51Q27.86 9.63 27.86 8.51L27.86 8.51L27.86 8.51Q27.86 7.39 28.34 6.50L28.34 6.50L28.34 6.50Q28.83 5.61 29.69 5.12L29.69 5.12L29.69 5.12Q30.55 4.62 31.64 4.62L31.64 4.62L31.64 4.62Q32.72 4.62 33.50 5.10L33.50 5.10L33.50 5.10Q34.29 5.57 34.71 6.43L34.71 6.43L34.71 6.43Q35.13 7.28 35.13 8.39L35.13 8.39ZM31.64 5.82L31.64 5.82Q30.62 5.82 29.98 6.38L29.98 6.38L29.98 6.38Q29.34 6.94 29.18 7.88L29.18 7.88L33.84 7.88L33.84 7.88Q33.71 6.94 33.14 6.38L33.14 6.38L33.14 6.38Q32.56 5.82 31.64 5.82L31.64 5.82ZM40.70 4.59L40.70 4.59Q41.44 4.59 41.86 4.82L41.86 4.82L41.86 4.82Q42.28 5.04 42.28 5.38L42.28 5.38L42.28 5.38Q42.28 5.47 42.27 5.52L42.27 5.52L42.27 5.52Q42.14 5.96 41.71 5.96L41.71 5.96L41.71 5.96Q41.64 5.96 41.50 5.94L41.50 5.94L41.50 5.94Q40.94 5.84 40.59 5.84L40.59 5.84L40.59 5.84Q39.58 5.84 38.96 6.30L38.96 6.30L38.96 6.30Q38.35 6.76 38.35 7.55L38.35 7.55L38.35 11.63L38.35 11.63Q38.35 11.97 38.17 12.15L38.17 12.15L38.17 12.15Q38.00 12.33 37.65 12.33L37.65 12.33L37.65 12.33Q37.31 12.33 37.13 12.16L37.13 12.16L37.13 12.16Q36.95 11.98 36.95 11.63L36.95 11.63L36.95 5.38L36.95 5.38Q36.95 5.04 37.13 4.86L37.13 4.86L37.13 4.86Q37.31 4.68 37.65 4.68L37.65 4.68L37.65 4.68Q38.35 4.68 38.35 5.38L38.35 5.38L38.35 5.64L38.35 5.64Q38.77 5.15 39.38 4.87L39.38 4.87L39.38 4.87Q40.00 4.59 40.70 4.59L40.70 4.59ZM47.05 2.69L47.05 2.69Q46.27 2.69 45.79 3.21L45.79 3.21L45.79 3.21Q45.32 3.72 45.32 4.58L45.32 4.58L45.32 4.96L46.75 4.96L46.75 4.96Q47.04 4.96 47.22 5.12L47.22 5.12L47.22 5.12Q47.40 5.29 47.40 5.57L47.40 5.57L47.40 5.57Q47.40 5.82 47.22 5.99L47.22 5.99L47.22 5.99Q47.04 6.16 46.75 6.16L46.75 6.16L45.32 6.16L45.32 11.62L45.32 11.62Q45.32 11.94 45.12 12.14L45.12 12.14L45.12 12.14Q44.93 12.33 44.58 12.33L44.58 12.33L44.58 12.33Q44.30 12.33 44.09 12.14L44.09 12.14L44.09 12.14Q43.89 11.94 43.89 11.62L43.89 11.62L43.89 6.16L43.29 6.16L43.29 6.16Q42.99 6.16 42.81 5.99L42.81 5.99L42.81 5.99Q42.63 5.82 42.63 5.57L42.63 5.57L42.63 5.57Q42.63 5.29 42.81 5.12L42.81 5.12L42.81 5.12Q42.99 4.96 43.29 4.96L43.29 4.96L43.89 4.96L43.89 4.72L43.89 4.72Q43.89 3.72 44.29 2.97L44.29 2.97L44.29 2.97Q44.69 2.23 45.41 1.81L45.41 1.81L45.41 1.81Q46.13 1.40 47.05 1.40L47.05 1.40L47.05 1.40Q47.36 1.40 47.57 1.58L47.57 1.58L47.57 1.58Q47.77 1.76 47.77 2.04L47.77 2.04L47.77 2.04Q47.77 2.32 47.57 2.51L47.57 2.51L47.57 2.51Q47.36 2.69 47.05 2.69L47.05 2.69ZM52.36 4.62L52.36 4.62Q53.44 4.62 54.31 5.13L54.31 5.13L54.31 5.13Q55.19 5.64 55.70 6.53L55.70 6.53L55.70 6.53Q56.21 7.42 56.21 8.51L56.21 8.51L56.21 11.63L56.21 11.63Q56.21 11.94 56.01 12.14L56.01 12.14L56.01 12.14Q55.80 12.35 55.50 12.35L55.50 12.35L55.50 12.35Q55.19 12.35 54.98 12.14L54.98 12.14L54.98 12.14Q54.78 11.94 54.78 11.63L54.78 11.63L54.78 11.12L54.78 11.12Q54.29 11.72 53.59 12.05L53.59 12.05L53.59 12.05Q52.89 12.39 52.08 12.39L52.08 12.39L52.08 12.39Q51.07 12.39 50.25 11.89L50.25 11.89L50.25 11.89Q49.43 11.38 48.97 10.49L48.97 10.49L48.97 10.49Q48.50 9.60 48.50 8.51L48.50 8.51L48.50 8.51Q48.50 7.42 49 6.53L49 6.53L49 6.53Q49.50 5.64 50.39 5.13L50.39 5.13L50.39 5.13Q51.28 4.62 52.36 4.62L52.36 4.62ZM52.36 11.13L52.36 11.13Q53.06 11.13 53.63 10.79L53.63 10.79L53.63 10.79Q54.19 10.44 54.52 9.85L54.52 9.85L54.52 9.85Q54.84 9.25 54.84 8.51L54.84 8.51L54.84 8.51Q54.84 7.77 54.52 7.17L54.52 7.17L54.52 7.17Q54.19 6.57 53.63 6.22L53.63 6.22L53.63 6.22Q53.06 5.88 52.36 5.88L52.36 5.88L52.36 5.88Q51.66 5.88 51.09 6.22L51.09 6.22L51.09 6.22Q50.53 6.57 50.20 7.17L50.20 7.17L50.20 7.17Q49.87 7.77 49.87 8.51L49.87 8.51L49.87 8.51Q49.87 9.25 50.20 9.85L50.20 9.85L50.20 9.85Q50.53 10.44 51.09 10.79L51.09 10.79L51.09 10.79Q51.66 11.13 52.36 11.13L52.36 11.13ZM66.39 4.61L66.39 4.61Q67.61 4.61 68.36 5.40L68.36 5.40L68.36 5.40Q69.10 6.20 69.10 7.63L69.10 7.63L69.10 11.63L69.10 11.63Q69.10 11.94 68.91 12.14L68.91 12.14L68.91 12.14Q68.71 12.35 68.39 12.35L68.39 12.35L68.39 12.35Q68.08 12.35 67.88 12.14L67.88 12.14L67.88 12.14Q67.68 11.94 67.68 11.63L67.68 11.63L67.68 7.63L67.68 7.63Q67.68 6.78 67.25 6.33L67.25 6.33L67.25 6.33Q66.82 5.89 66.11 5.89L66.11 5.89L66.11 5.89Q65.38 5.89 64.91 6.40L64.91 6.40L64.91 6.40Q64.44 6.90 64.44 7.69L64.44 7.69L64.44 11.63L64.44 11.63Q64.44 11.94 64.25 12.14L64.25 12.14L64.25 12.14Q64.05 12.35 63.73 12.35L63.73 12.35L63.73 12.35Q63.42 12.35 63.22 12.14L63.22 12.14L63.22 12.14Q63.01 11.94 63.01 11.63L63.01 11.63L63.01 7.63L63.01 7.63Q63.01 6.78 62.59 6.33L62.59 6.33L62.59 6.33Q62.16 5.89 61.45 5.89L61.45 5.89L61.45 5.89Q60.70 5.89 60.23 6.40L60.23 6.40L60.23 6.40Q59.77 6.90 59.77 7.69L59.77 7.69L59.77 11.63L59.77 11.63Q59.77 11.94 59.57 12.14L59.57 12.14L59.57 12.14Q59.37 12.35 59.05 12.35L59.05 12.35L59.05 12.35Q58.74 12.35 58.54 12.14L58.54 12.14L58.54 12.14Q58.34 11.94 58.34 11.63L58.34 11.63L58.34 5.40L58.34 5.40Q58.34 5.08 58.54 4.89L58.54 4.89L58.54 4.89Q58.74 4.69 59.05 4.69L59.05 4.69L59.05 4.69Q59.36 4.69 59.56 4.88L59.56 4.88L59.56 4.88Q59.75 5.07 59.77 5.38L59.77 5.38L59.77 5.38Q60.13 5.01 60.63 4.81L60.63 4.81L60.63 4.81Q61.14 4.61 61.73 4.61L61.73 4.61L61.73 4.61Q62.44 4.61 63.01 4.89L63.01 4.89L63.01 4.89Q63.57 5.18 63.94 5.71L63.94 5.71L63.94 5.71Q64.36 5.19 64.99 4.90L64.99 4.90L64.99 4.90Q65.62 4.61 66.39 4.61L66.39 4.61Z"></path></g><defs data-v-fde0c5aa=""><linearGradient data-v-fde0c5aa="" gradientTransform="rotate(25)" id="069ded67-e5ea-4029-8f8c-1ab0684496f2" x1="0%" y1="0%" x2="100%" y2="0%"><stop data-v-fde0c5aa="" offset="0%" stop-color="#0D7CE9" stop-opacity="1"></stop><stop data-v-fde0c5aa="" offset="100%" stop-color="#15CFF1" stop-opacity="1"></stop></linearGradient></defs><g data-v-fde0c5aa="" id="0ecbe69e-348e-4fa3-b3bb-c1db76b85b60" stroke="none" fill="url(#069ded67-e5ea-4029-8f8c-1ab0684496f2)" transform="matrix(0.5241919702044097,0,0,0.5241919702044097,38.584681405498465,123.98697097906408)"><path d="M96.2 46.9l-4.8-8.4v-9.3c0-2.1-1.1-4-2.9-5.1l-8.1-4.7-4.8-8.3c-1-1.8-3-2.9-5.1-2.9h-9.6l-8.2-4.7c-1.8-1-4.1-1-5.9 0l-8.2 4.7h-9.4c-2.1 0-4 1.1-5.1 2.9l-4.7 8.1L11 24c-1.8 1-2.9 3-2.9 5.1v9.6l-4.6 8c-.5.9-.8 1.9-.8 2.9s.3 2 .8 2.9l4.6 8v9.6c0 2.1 1.1 4 2.9 5.1l8.4 4.8 4.7 8.1c1 1.8 3 2.9 5.1 2.9h9.4l8.2 4.7c.9.5 1.9.8 2.9.8s2-.3 2.9-.8l8.2-4.7h9.6c2.1 0 4-1.1 5.1-2.9l4.8-8.3 8.1-4.7c1.8-1 2.9-3 2.9-5.1v-9.3l4.8-8.4c1.2-1.4 1.2-3.6.1-5.4zM40.9 60.5H35V44.8h5.9v15.7zm22.2 0H43.8V44.7l8.8-9.6 3.8.7-2.8 8.2h13.1l-3.6 16.5z"></path></g><!----></svg>