<svg data-v-423bf9ae="" xmlns="http://www.w3.org/2000/svg" viewBox="0 0 497 103" class="iconLeft"><!----><!----><defs data-v-423bf9ae=""><linearGradient data-v-423bf9ae="" gradientTransform="rotate(25)" id="46676ee5-2625-413b-b237-e010969328af" x1="0%" y1="0%" x2="100%" y2="0%"><stop data-v-423bf9ae="" offset="0%" style="stop-color: rgb(0, 80, 255); stop-opacity: 1;"></stop><stop data-v-423bf9ae="" offset="100%" style="stop-color: rgb(18, 248, 255); stop-opacity: 1;"></stop></linearGradient></defs><g data-v-423bf9ae="" id="cb6fe47a-c844-4e01-b7b2-abbf00406fa0" fill="url(#46676ee5-2625-413b-b237-e010969328af)" transform="matrix(5.7526364568010235,0,0,5.7526364568010235,122.34246375798426,17.34573227392201)"><path d="M6.40 3.02L6.40 3.02L2.37 3.02L2.37 4.70L5.33 4.70L5.33 7.06L2.37 7.06L2.37 11.09L0.01 11.09L0.01 0.67L6.40 0.67L6.40 3.02ZM14.17 11.09L14.17 11.09L12.77 7.06L10.84 7.06L9.44 11.09L6.90 11.09L10.51 0.67L13.09 0.67L16.70 11.09L14.17 11.09ZM27.06 0.67L27.06 0.67L27.06 0.67L27.06 11.09L24.71 11.09L24.71 7.45L23.44 11.09L21.08 11.09L19.78 7.34L19.78 11.09L17.43 11.09L17.43 0.67L19.82 0.67L22.26 7.70L24.71 0.67L24.71 0.67L27.06 0.67ZM35.42 0.67L35.42 0.67L37.77 0.67L34.15 11.09L31.77 11.09L28.14 0.67L30.49 0.67L32.96 7.76L35.42 0.67ZM40.53 0.67L40.53 0.67L40.53 11.09L38.18 11.09L38.18 0.67L40.53 0.67ZM48.89 5.88L48.89 5.88L48.89 5.88Q48.89 6.93 48.50 7.88L48.50 7.88L48.50 7.88Q48.10 8.82 47.35 9.58L47.35 9.58L47.35 9.58Q46.65 10.26 45.77 10.65L45.77 10.65L45.77 10.65Q44.90 11.03 43.93 11.09L43.93 11.09L43.62 11.09L41.52 11.09L41.52 0.67L43.62 0.67L43.62 0.67Q44.67 0.67 45.63 1.06L45.63 1.06L45.63 1.06Q46.59 1.44 47.35 2.18L47.35 2.18L47.35 2.18Q48.10 2.94 48.50 3.89L48.50 3.89L48.50 3.89Q48.89 4.83 48.89 5.88ZM56.04 3.02L56.04 3.02L52.01 3.02L52.01 4.70L54.98 4.70L54.98 7.06L52.01 7.06L52.01 8.74L56.04 8.74L56.04 11.09L49.66 11.09L49.66 0.67L56.04 0.67L56.04 3.02ZM65.03 6.94L65.03 6.94L65.03 6.94Q65.02 7.77 64.72 8.51L64.72 8.51L64.72 8.51Q64.43 9.25 63.87 9.84L63.87 9.84L63.87 9.84Q63.29 10.46 62.56 10.78L62.56 10.78L62.56 10.78Q61.82 11.10 61.00 11.10L61.00 11.10L60.98 11.10L60.98 11.10Q60.17 11.10 59.44 10.78L59.44 10.78L59.44 10.78Q58.70 10.46 58.11 9.86L58.11 9.86L58.11 9.86Q57.57 9.27 57.27 8.53L57.27 8.53L57.27 8.53Q56.97 7.78 56.95 6.94L56.95 6.94L56.95 4.51L56.95 4.51Q57.02 3.77 57.32 3.11L57.32 3.11L57.32 3.11Q57.62 2.45 58.11 1.92L58.11 1.92L58.11 1.92Q58.70 1.32 59.43 0.99L59.43 0.99L59.43 0.99Q60.16 0.67 60.98 0.67L60.98 0.67L61.00 0.67L61.00 0.67Q61.82 0.67 62.56 0.99L62.56 0.99L62.56 0.99Q63.29 1.32 63.87 1.92L63.87 1.92L63.87 1.92Q64.37 2.45 64.67 3.11L64.67 3.11L64.67 3.11Q64.96 3.77 65.03 4.51L65.03 4.51L65.03 4.82L65.03 6.10L65.03 6.94Z"></path></g><defs data-v-423bf9ae=""><linearGradient data-v-423bf9ae="" gradientTransform="rotate(25)" id="3eae591b-7949-44ae-98f0-ee08ccd83f44" x1="0%" y1="0%" x2="100%" y2="0%"><stop data-v-423bf9ae="" offset="0%" style="stop-color: rgb(191, 0, 255); stop-opacity: 1;"></stop><stop data-v-423bf9ae="" offset="100%" style="stop-color: rgb(18, 177, 255); stop-opacity: 1;"></stop></linearGradient></defs><g data-v-423bf9ae="" id="8aadbe4d-0f3d-4ba2-ab1d-d23152b222d6" transform="matrix(1.0666666666666667,0,0,1.0666666666666667,0.7999999999999972,0.7999999999999972)" stroke="none" fill="url(#3eae591b-7949-44ae-98f0-ee08ccd83f44)"><path d="M40 62.756L62.368 48 40 33.244v29.512z"></path><path d="M48 0C21.492 0 0 21.492 0 48s21.492 48 48 48 48-21.492 48-48S74.508 0 48 0zm19.1 49.672l-28 18.473a1.96 1.96 0 0 1-1.1.332c-.328 0-.652-.08-.948-.244A1.983 1.983 0 0 1 36 66.477V29.524c0-.736.404-1.416 1.052-1.756a2.002 2.002 0 0 1 2.048.092l28 18.476c.564.368.9.992.9 1.664s-.336 1.296-.9 1.672z"></path></g><!----></svg>