<svg xmlns="http://www.w3.org/2000/svg" xmlns:xlink="http://www.w3.org/1999/xlink" version="1.1" width="256" height="256" viewBox="0 0 256 256" xml:space="preserve">
<desc>Created with Fabric.js 1.7.22</desc>
<defs>
</defs>
<g transform="translate(128 128) scale(0.72 0.72)" style="">
	<g style="stroke: none; stroke-width: 0; stroke-dasharray: none; stroke-linecap: butt; stroke-linejoin: miter; stroke-miterlimit: 10; fill: none; fill-rule: nonzero; opacity: 1;" transform="translate(-175.05 -175.05000000000004) scale(3.89 3.89)" >
	<path d="M 86.999 90 c -0.367 0 -0.737 -0.067 -1.092 -0.206 l -17.016 -6.655 C 61.734 87.633 53.509 90 45 90 C 20.187 90 0 69.813 0 45 C 0 20.187 20.187 0 45 0 c 24.813 0 45 20.187 45 45 c 0 8.509 -2.367 16.734 -6.861 23.892 l 6.655 17.016 c 0.434 1.11 0.17 2.371 -0.673 3.214 C 88.548 89.694 87.78 90 86.999 90 z M 45 6 C 23.495 6 6 23.495 6 45 s 17.495 39 39 39 c 7.839 0 15.398 -2.317 21.862 -6.7 c 0.818 -0.555 1.855 -0.671 2.776 -0.312 l 12.07 4.721 l -4.721 -12.07 c -0.36 -0.92 -0.243 -1.959 0.312 -2.776 C 81.683 60.398 84 52.839 84 45 C 84 23.495 66.505 6 45 6 z" style="stroke: none; stroke-width: 1; stroke-dasharray: none; stroke-linecap: butt; stroke-linejoin: miter; stroke-miterlimit: 10; fill: rgb(0,0,0); fill-rule: nonzero; opacity: 1;" transform=" matrix(1 0 0 1 0 0) " stroke-linecap="round" />
</g>
</g>
</svg>