<svg xmlns="http://www.w3.org/2000/svg" xmlns:xlink="http://www.w3.org/1999/xlink" version="1.1" width="256" height="256" viewBox="0 0 256 256" xml:space="preserve">
<desc>Created with Fabric.js 1.7.22</desc>
<defs>
</defs>
<g transform="translate(128 128) scale(0.72 0.72)" style="">
	<g style="stroke: none; stroke-width: 0; stroke-dasharray: none; stroke-linecap: butt; stroke-linejoin: miter; stroke-miterlimit: 10; fill: none; fill-rule: nonzero; opacity: 1;" transform="translate(-175.05 -175.05000000000004) scale(3.89 3.89)" >
	<path d="M 83.627 13.423 L 83.627 13.423 c -8.498 -8.498 -22.403 -8.498 -30.901 0 L 45 21.148 l -7.725 -7.725 c -8.498 -8.498 -22.403 -8.498 -30.901 0 s -8.498 22.403 0 30.901 l 13.247 13.247 c 0 0 0 0 0 0 L 45 82.951 l 25.379 -25.379 l 13.248 -13.248 C 92.124 35.826 92.124 21.921 83.627 13.423 z" style="stroke: none; stroke-width: 1; stroke-dasharray: none; stroke-linecap: butt; stroke-linejoin: miter; stroke-miterlimit: 10; fill: rgb(255,255,255); fill-rule: nonzero; opacity: 1;" transform=" matrix(1 0 0 1 0 0) " stroke-linecap="round" />
</g>
</g>
</svg>